<mxfile host="Electron" modified="2023-07-14T10:22:50.937Z" agent="Mozilla/5.0 (Macintosh; Intel Mac OS X 10_15_7) AppleWebKit/537.36 (KHTML, like Gecko) draw.io/21.6.1 Chrome/112.0.5615.204 Electron/24.6.1 Safari/537.36" etag="RaAHnObVEvPnXkgafDa-" version="21.6.1" type="device">
  <diagram name="Pagina-1" id="itF8hff52mdQx9X9tJLf">
    <mxGraphModel dx="1195" dy="782" grid="0" gridSize="10" guides="1" tooltips="1" connect="1" arrows="1" fold="1" page="1" pageScale="1" pageWidth="827" pageHeight="1169" math="0" shadow="0">
      <root>
        <mxCell id="0" />
        <mxCell id="1" parent="0" />
        <mxCell id="gkOn1DTOGH1XlXqJHRQI-1" value="" style="whiteSpace=wrap;html=1;labelBackgroundColor=none;fillColor=#e8f6fc;strokeColor=none;" vertex="1" parent="1">
          <mxGeometry x="176" y="60" width="524" height="350" as="geometry" />
        </mxCell>
        <mxCell id="gkOn1DTOGH1XlXqJHRQI-29" value="" style="rounded=0;whiteSpace=wrap;html=1;strokeColor=none;fillColor=#e3e3e3;" vertex="1" parent="1">
          <mxGeometry x="205.99999999999994" y="80" width="467.94" height="310" as="geometry" />
        </mxCell>
        <mxCell id="gkOn1DTOGH1XlXqJHRQI-60" value="" style="image;aspect=fixed;html=1;points=[];align=center;fontSize=12;image=img/lib/azure2/general/Subscriptions.svg;" vertex="1" parent="1">
          <mxGeometry x="169.16000000000003" y="51" width="17.04" height="27.5" as="geometry" />
        </mxCell>
        <mxCell id="gkOn1DTOGH1XlXqJHRQI-80" value="" style="group" vertex="1" connectable="0" parent="1">
          <mxGeometry x="449.46000000000004" y="302" width="76.53999999999996" height="80" as="geometry" />
        </mxCell>
        <mxCell id="gkOn1DTOGH1XlXqJHRQI-63" value="" style="image;aspect=fixed;html=1;points=[];align=center;fontSize=12;image=img/lib/azure2/analytics/Log_Analytics_Workspaces.svg;" vertex="1" parent="gkOn1DTOGH1XlXqJHRQI-80">
          <mxGeometry x="16.269999999999982" width="44" height="44" as="geometry" />
        </mxCell>
        <mxCell id="gkOn1DTOGH1XlXqJHRQI-75" value="&lt;font style=&quot;font-size: 11px;&quot;&gt;Log Analytics&lt;/font&gt;" style="text;html=1;strokeColor=none;fillColor=none;align=center;verticalAlign=middle;whiteSpace=wrap;rounded=0;fontSize=8;" vertex="1" parent="gkOn1DTOGH1XlXqJHRQI-80">
          <mxGeometry y="50" width="76.54" height="30" as="geometry" />
        </mxCell>
        <mxCell id="gkOn1DTOGH1XlXqJHRQI-96" value="" style="whiteSpace=wrap;html=1;fillColor=#e3e3e3;dashed=1;" vertex="1" parent="1">
          <mxGeometry x="315.99999999999994" y="94" width="307.94" height="150" as="geometry" />
        </mxCell>
        <mxCell id="gkOn1DTOGH1XlXqJHRQI-86" value="" style="group" vertex="1" connectable="0" parent="1">
          <mxGeometry x="566" y="300" width="76.54000000000002" height="80" as="geometry" />
        </mxCell>
        <mxCell id="gkOn1DTOGH1XlXqJHRQI-61" value="" style="image;aspect=fixed;html=1;points=[];align=center;fontSize=12;image=img/lib/azure2/security/Key_Vaults.svg;" vertex="1" parent="gkOn1DTOGH1XlXqJHRQI-86">
          <mxGeometry x="15.270000000000039" width="46" height="46" as="geometry" />
        </mxCell>
        <mxCell id="gkOn1DTOGH1XlXqJHRQI-69" value="&lt;font style=&quot;font-size: 11px;&quot;&gt;Key Vault&lt;/font&gt;" style="text;html=1;strokeColor=none;fillColor=none;align=center;verticalAlign=middle;whiteSpace=wrap;rounded=0;fontSize=8;" vertex="1" parent="gkOn1DTOGH1XlXqJHRQI-86">
          <mxGeometry y="50" width="76.54" height="30" as="geometry" />
        </mxCell>
        <mxCell id="gkOn1DTOGH1XlXqJHRQI-89" value="" style="group" vertex="1" connectable="0" parent="1">
          <mxGeometry x="20.99999999999997" y="123" width="76.54" height="80" as="geometry" />
        </mxCell>
        <mxCell id="3kBSJNOHfUeenzVBCNcW-1" value="" style="image;aspect=fixed;html=1;points=[];align=center;fontSize=12;image=img/lib/azure2/app_services/App_Service_Domains.svg;" parent="gkOn1DTOGH1XlXqJHRQI-89" vertex="1">
          <mxGeometry x="14.520000000000032" width="47.5" height="38" as="geometry" />
        </mxCell>
        <mxCell id="gkOn1DTOGH1XlXqJHRQI-65" value="&lt;font style=&quot;font-size: 11px;&quot;&gt;Application&lt;/font&gt;" style="text;html=1;strokeColor=none;fillColor=none;align=center;verticalAlign=middle;whiteSpace=wrap;rounded=0;fontSize=8;" vertex="1" parent="gkOn1DTOGH1XlXqJHRQI-89">
          <mxGeometry y="50" width="76.54" height="30" as="geometry" />
        </mxCell>
        <mxCell id="gkOn1DTOGH1XlXqJHRQI-93" value="" style="group" vertex="1" connectable="0" parent="1">
          <mxGeometry x="20.99999999999997" y="260" width="76.54" height="80" as="geometry" />
        </mxCell>
        <mxCell id="gkOn1DTOGH1XlXqJHRQI-94" value="" style="image;aspect=fixed;html=1;points=[];align=center;fontSize=12;image=img/lib/azure2/app_services/App_Service_Domains.svg;" vertex="1" parent="gkOn1DTOGH1XlXqJHRQI-93">
          <mxGeometry x="14.520000000000032" width="47.5" height="38" as="geometry" />
        </mxCell>
        <mxCell id="gkOn1DTOGH1XlXqJHRQI-95" value="&lt;font style=&quot;font-size: 11px;&quot;&gt;Application&lt;/font&gt;" style="text;html=1;strokeColor=none;fillColor=none;align=center;verticalAlign=middle;whiteSpace=wrap;rounded=0;fontSize=8;" vertex="1" parent="gkOn1DTOGH1XlXqJHRQI-93">
          <mxGeometry y="50" width="76.54" height="30" as="geometry" />
        </mxCell>
        <mxCell id="gkOn1DTOGH1XlXqJHRQI-100" value="" style="whiteSpace=wrap;html=1;fillColor=#e3e3e3;dashed=1;" vertex="1" parent="1">
          <mxGeometry x="326" y="114" width="140" height="120" as="geometry" />
        </mxCell>
        <mxCell id="gkOn1DTOGH1XlXqJHRQI-85" value="" style="group" vertex="1" connectable="0" parent="1">
          <mxGeometry x="355.99999999999994" y="134" width="76.54000000000002" height="80" as="geometry" />
        </mxCell>
        <mxCell id="gkOn1DTOGH1XlXqJHRQI-70" value="&lt;font style=&quot;font-size: 11px;&quot;&gt;API Management&lt;/font&gt;" style="text;html=1;strokeColor=none;fillColor=none;align=center;verticalAlign=middle;whiteSpace=wrap;rounded=0;fontSize=8;" vertex="1" parent="gkOn1DTOGH1XlXqJHRQI-85">
          <mxGeometry y="50" width="76.54" height="30" as="geometry" />
        </mxCell>
        <mxCell id="3kBSJNOHfUeenzVBCNcW-3" value="" style="image;aspect=fixed;html=1;points=[];align=center;fontSize=12;image=img/lib/azure2/app_services/API_Management_Services.svg;" parent="gkOn1DTOGH1XlXqJHRQI-85" vertex="1">
          <mxGeometry x="15.520000000000039" width="45.5" height="42" as="geometry" />
        </mxCell>
        <mxCell id="gkOn1DTOGH1XlXqJHRQI-46" value="" style="image;sketch=0;aspect=fixed;html=1;points=[];align=center;fontSize=12;image=img/lib/mscae/ResourceGroup.svg;" vertex="1" parent="1">
          <mxGeometry x="195.94" y="74" width="22.5" height="18" as="geometry" />
        </mxCell>
        <mxCell id="3kBSJNOHfUeenzVBCNcW-9" value="" style="image;aspect=fixed;html=1;points=[];align=center;fontSize=12;image=img/lib/azure2/networking/Virtual_Networks.svg;container=0;" parent="1" vertex="1">
          <mxGeometry x="604.0028325058793" y="249" width="21.057142857142857" height="12.571428571428571" as="geometry" />
        </mxCell>
        <mxCell id="gkOn1DTOGH1XlXqJHRQI-101" value="" style="whiteSpace=wrap;html=1;fillColor=#e3e3e3;dashed=1;" vertex="1" parent="1">
          <mxGeometry x="476" y="114" width="140" height="120" as="geometry" />
        </mxCell>
        <mxCell id="gkOn1DTOGH1XlXqJHRQI-84" value="" style="group" vertex="1" connectable="0" parent="1">
          <mxGeometry x="507.73" y="134" width="76.53999999999996" height="80" as="geometry" />
        </mxCell>
        <mxCell id="gkOn1DTOGH1XlXqJHRQI-71" value="&lt;font style=&quot;font-size: 11px;&quot;&gt;Azure OpenAI&lt;/font&gt;" style="text;html=1;strokeColor=none;fillColor=none;align=center;verticalAlign=middle;whiteSpace=wrap;rounded=0;fontSize=8;" vertex="1" parent="gkOn1DTOGH1XlXqJHRQI-84">
          <mxGeometry y="50" width="76.54" height="30" as="geometry" />
        </mxCell>
        <mxCell id="3kBSJNOHfUeenzVBCNcW-8" value="" style="shape=image;verticalLabelPosition=bottom;labelBackgroundColor=default;verticalAlign=top;aspect=fixed;imageAspect=0;image=https://seeklogo.com/images/C/chatgpt-logo-02AFA704B5-seeklogo.com.png;" parent="gkOn1DTOGH1XlXqJHRQI-84" vertex="1">
          <mxGeometry x="17.55000000000001" width="41.44" height="42" as="geometry" />
        </mxCell>
        <mxCell id="gkOn1DTOGH1XlXqJHRQI-78" value="&lt;font style=&quot;font-size: 11px;&quot;&gt;Subnet&lt;/font&gt;" style="text;html=1;strokeColor=none;fillColor=none;align=center;verticalAlign=middle;whiteSpace=wrap;rounded=0;fontSize=8;" vertex="1" parent="1">
          <mxGeometry x="376" y="100" width="40" height="10" as="geometry" />
        </mxCell>
        <mxCell id="gkOn1DTOGH1XlXqJHRQI-102" value="&lt;font style=&quot;font-size: 11px;&quot;&gt;Subnet&lt;/font&gt;" style="text;html=1;strokeColor=none;fillColor=none;align=center;verticalAlign=middle;whiteSpace=wrap;rounded=0;fontSize=8;" vertex="1" parent="1">
          <mxGeometry x="526" y="100" width="40" height="10" as="geometry" />
        </mxCell>
        <mxCell id="gkOn1DTOGH1XlXqJHRQI-103" value="" style="image;aspect=fixed;html=1;points=[];align=center;fontSize=12;image=img/lib/azure2/networking/Network_Security_Groups.svg;" vertex="1" parent="1">
          <mxGeometry x="471" y="109" width="13.18" height="16" as="geometry" />
        </mxCell>
        <mxCell id="gkOn1DTOGH1XlXqJHRQI-104" value="" style="image;aspect=fixed;html=1;points=[];align=center;fontSize=12;image=img/lib/azure2/networking/Network_Security_Groups.svg;" vertex="1" parent="1">
          <mxGeometry x="323" y="109" width="13.18" height="16" as="geometry" />
        </mxCell>
        <mxCell id="gkOn1DTOGH1XlXqJHRQI-87" value="" style="group" vertex="1" connectable="0" parent="1">
          <mxGeometry x="336.99999999999994" y="302" width="76.53999999999999" height="80" as="geometry" />
        </mxCell>
        <mxCell id="gkOn1DTOGH1XlXqJHRQI-62" value="" style="image;aspect=fixed;html=1;points=[];align=center;fontSize=12;image=img/lib/azure2/devops/Application_Insights.svg;" vertex="1" parent="gkOn1DTOGH1XlXqJHRQI-87">
          <mxGeometry x="23.08000000000004" width="30.38" height="43.5" as="geometry" />
        </mxCell>
        <mxCell id="gkOn1DTOGH1XlXqJHRQI-67" value="&lt;font style=&quot;font-size: 11px;&quot;&gt;Application Insights&lt;/font&gt;" style="text;html=1;strokeColor=none;fillColor=none;align=center;verticalAlign=middle;whiteSpace=wrap;rounded=0;fontSize=8;" vertex="1" parent="gkOn1DTOGH1XlXqJHRQI-87">
          <mxGeometry y="50" width="76.54" height="30" as="geometry" />
        </mxCell>
        <mxCell id="gkOn1DTOGH1XlXqJHRQI-79" value="" style="group" vertex="1" connectable="0" parent="1">
          <mxGeometry x="220.93999999999994" y="305" width="76.53999999999996" height="80" as="geometry" />
        </mxCell>
        <mxCell id="gkOn1DTOGH1XlXqJHRQI-64" value="" style="image;aspect=fixed;html=1;points=[];align=center;fontSize=12;image=img/lib/azure2/other/Dashboard_Hub.svg;" vertex="1" parent="gkOn1DTOGH1XlXqJHRQI-79">
          <mxGeometry x="13.420000000000073" width="49.69" height="38" as="geometry" />
        </mxCell>
        <mxCell id="gkOn1DTOGH1XlXqJHRQI-76" value="&lt;font style=&quot;font-size: 11px;&quot;&gt;Azure Dashboard&lt;/font&gt;" style="text;html=1;strokeColor=none;fillColor=none;align=center;verticalAlign=middle;whiteSpace=wrap;rounded=0;fontSize=8;" vertex="1" parent="gkOn1DTOGH1XlXqJHRQI-79">
          <mxGeometry y="50" width="76.54" height="30" as="geometry" />
        </mxCell>
        <mxCell id="gkOn1DTOGH1XlXqJHRQI-109" value="" style="group" vertex="1" connectable="0" parent="1">
          <mxGeometry x="220.93999999999994" y="196" width="76.54000000000002" height="80" as="geometry" />
        </mxCell>
        <mxCell id="3kBSJNOHfUeenzVBCNcW-2" value="" style="image;aspect=fixed;html=1;points=[];align=center;fontSize=12;image=img/lib/azure2/networking/Front_Doors.svg;" parent="gkOn1DTOGH1XlXqJHRQI-109" vertex="1">
          <mxGeometry x="14.470000000000027" width="47.6" height="42" as="geometry" />
        </mxCell>
        <mxCell id="gkOn1DTOGH1XlXqJHRQI-66" value="&lt;font style=&quot;font-size: 11px;&quot;&gt;Frontdoor&lt;/font&gt;" style="text;html=1;strokeColor=none;fillColor=none;align=center;verticalAlign=middle;whiteSpace=wrap;rounded=0;fontSize=8;" vertex="1" parent="gkOn1DTOGH1XlXqJHRQI-109">
          <mxGeometry y="50" width="76.54" height="30" as="geometry" />
        </mxCell>
        <mxCell id="3kBSJNOHfUeenzVBCNcW-11" value="" style="image;aspect=fixed;html=1;points=[];align=center;fontSize=12;image=img/lib/azure2/networking/Web_Application_Firewall_Policies_WAF.svg;" parent="gkOn1DTOGH1XlXqJHRQI-109" vertex="1">
          <mxGeometry x="-5.529999999999916" y="-6" width="20" height="20" as="geometry" />
        </mxCell>
        <mxCell id="gkOn1DTOGH1XlXqJHRQI-110" style="edgeStyle=orthogonalEdgeStyle;rounded=0;orthogonalLoop=1;jettySize=auto;html=1;entryX=0.012;entryY=0.476;entryDx=0;entryDy=0;entryPerimeter=0;strokeColor=#00CC00;strokeWidth=2;" edge="1" parent="1" source="gkOn1DTOGH1XlXqJHRQI-94" target="3kBSJNOHfUeenzVBCNcW-2">
          <mxGeometry relative="1" as="geometry">
            <Array as="points">
              <mxPoint x="130" y="279" />
              <mxPoint x="130" y="216" />
            </Array>
          </mxGeometry>
        </mxCell>
        <mxCell id="gkOn1DTOGH1XlXqJHRQI-111" style="edgeStyle=orthogonalEdgeStyle;rounded=0;orthogonalLoop=1;jettySize=auto;html=1;strokeColor=#CC0000;strokeWidth=2;entryX=0.011;entryY=0.19;entryDx=0;entryDy=0;entryPerimeter=0;" edge="1" parent="1" source="3kBSJNOHfUeenzVBCNcW-1" target="3kBSJNOHfUeenzVBCNcW-3">
          <mxGeometry relative="1" as="geometry" />
        </mxCell>
        <mxCell id="gkOn1DTOGH1XlXqJHRQI-112" style="edgeStyle=orthogonalEdgeStyle;rounded=0;orthogonalLoop=1;jettySize=auto;html=1;strokeColor=#00CC00;strokeWidth=2;exitX=0.958;exitY=0.476;exitDx=0;exitDy=0;exitPerimeter=0;entryX=0.011;entryY=0.786;entryDx=0;entryDy=0;entryPerimeter=0;" edge="1" parent="1" source="3kBSJNOHfUeenzVBCNcW-2" target="3kBSJNOHfUeenzVBCNcW-3">
          <mxGeometry relative="1" as="geometry">
            <mxPoint x="58" y="289" as="sourcePoint" />
            <mxPoint x="246" y="226" as="targetPoint" />
            <Array as="points">
              <mxPoint x="296" y="216" />
              <mxPoint x="296" y="167" />
            </Array>
          </mxGeometry>
        </mxCell>
        <mxCell id="gkOn1DTOGH1XlXqJHRQI-113" style="edgeStyle=orthogonalEdgeStyle;rounded=0;orthogonalLoop=1;jettySize=auto;html=1;" edge="1" parent="1" source="3kBSJNOHfUeenzVBCNcW-3" target="3kBSJNOHfUeenzVBCNcW-8">
          <mxGeometry relative="1" as="geometry" />
        </mxCell>
        <mxCell id="gkOn1DTOGH1XlXqJHRQI-114" value="" style="html=1;verticalLabelPosition=bottom;labelBackgroundColor=#ffffff;verticalAlign=top;shadow=0;dashed=0;strokeWidth=3;shape=mxgraph.ios7.misc.check;strokeColor=#00CC00;" vertex="1" parent="1">
          <mxGeometry x="185.94" y="196" width="10" height="8" as="geometry" />
        </mxCell>
        <mxCell id="gkOn1DTOGH1XlXqJHRQI-115" value="" style="verticalLabelPosition=bottom;verticalAlign=top;html=1;shape=mxgraph.basic.no_symbol;fillColor=#CC0000;strokeColor=#CC0000;" vertex="1" parent="1">
          <mxGeometry x="185.2" y="127" width="10" height="10" as="geometry" />
        </mxCell>
        <mxCell id="gkOn1DTOGH1XlXqJHRQI-116" value="" style="group" vertex="1" connectable="0" parent="1">
          <mxGeometry x="730" y="136" width="76.54" height="80" as="geometry" />
        </mxCell>
        <mxCell id="gkOn1DTOGH1XlXqJHRQI-117" value="" style="image;aspect=fixed;html=1;points=[];align=center;fontSize=12;image=img/lib/azure2/app_services/App_Service_Domains.svg;" vertex="1" parent="gkOn1DTOGH1XlXqJHRQI-116">
          <mxGeometry x="14.520000000000032" width="47.5" height="38" as="geometry" />
        </mxCell>
        <mxCell id="gkOn1DTOGH1XlXqJHRQI-118" value="&lt;font style=&quot;font-size: 11px;&quot;&gt;Application&lt;/font&gt;" style="text;html=1;strokeColor=none;fillColor=none;align=center;verticalAlign=middle;whiteSpace=wrap;rounded=0;fontSize=8;" vertex="1" parent="gkOn1DTOGH1XlXqJHRQI-116">
          <mxGeometry y="50" width="76.54" height="30" as="geometry" />
        </mxCell>
        <mxCell id="gkOn1DTOGH1XlXqJHRQI-119" style="edgeStyle=orthogonalEdgeStyle;rounded=0;orthogonalLoop=1;jettySize=auto;html=1;strokeColor=#CC0000;strokeWidth=2;entryX=1;entryY=0.5;entryDx=0;entryDy=0;" edge="1" parent="1" source="gkOn1DTOGH1XlXqJHRQI-117" target="3kBSJNOHfUeenzVBCNcW-8">
          <mxGeometry relative="1" as="geometry">
            <mxPoint x="93" y="152" as="sourcePoint" />
            <mxPoint x="382" y="152" as="targetPoint" />
          </mxGeometry>
        </mxCell>
        <mxCell id="gkOn1DTOGH1XlXqJHRQI-120" value="" style="verticalLabelPosition=bottom;verticalAlign=top;html=1;shape=mxgraph.basic.no_symbol;fillColor=#CC0000;strokeColor=#CC0000;" vertex="1" parent="1">
          <mxGeometry x="683" y="139" width="10" height="10" as="geometry" />
        </mxCell>
        <mxCell id="gkOn1DTOGH1XlXqJHRQI-121" style="edgeStyle=orthogonalEdgeStyle;rounded=0;orthogonalLoop=1;jettySize=auto;html=1;endArrow=none;endFill=0;dashed=1;dashPattern=1 2;" edge="1" parent="1" source="gkOn1DTOGH1XlXqJHRQI-62" target="gkOn1DTOGH1XlXqJHRQI-64">
          <mxGeometry relative="1" as="geometry" />
        </mxCell>
        <mxCell id="gkOn1DTOGH1XlXqJHRQI-122" style="edgeStyle=orthogonalEdgeStyle;rounded=0;orthogonalLoop=1;jettySize=auto;html=1;endArrow=none;endFill=0;entryX=0.25;entryY=1;entryDx=0;entryDy=0;dashed=1;dashPattern=1 2;" edge="1" parent="1" source="gkOn1DTOGH1XlXqJHRQI-62" target="gkOn1DTOGH1XlXqJHRQI-70">
          <mxGeometry relative="1" as="geometry">
            <mxPoint x="369" y="334" as="sourcePoint" />
            <mxPoint x="294" y="334" as="targetPoint" />
            <Array as="points">
              <mxPoint x="375" y="240" />
              <mxPoint x="375" y="240" />
            </Array>
          </mxGeometry>
        </mxCell>
        <mxCell id="gkOn1DTOGH1XlXqJHRQI-123" style="edgeStyle=orthogonalEdgeStyle;rounded=0;orthogonalLoop=1;jettySize=auto;html=1;endArrow=none;endFill=0;entryX=0.5;entryY=1;entryDx=0;entryDy=0;dashed=1;dashPattern=1 2;" edge="1" parent="1" source="gkOn1DTOGH1XlXqJHRQI-61" target="gkOn1DTOGH1XlXqJHRQI-71">
          <mxGeometry relative="1" as="geometry">
            <mxPoint x="379" y="344" as="sourcePoint" />
            <mxPoint x="304" y="344" as="targetPoint" />
            <Array as="points">
              <mxPoint x="604" y="270" />
              <mxPoint x="546" y="270" />
            </Array>
          </mxGeometry>
        </mxCell>
        <mxCell id="gkOn1DTOGH1XlXqJHRQI-124" style="edgeStyle=orthogonalEdgeStyle;rounded=0;orthogonalLoop=1;jettySize=auto;html=1;endArrow=none;endFill=0;dashed=1;dashPattern=1 2;" edge="1" parent="1" source="gkOn1DTOGH1XlXqJHRQI-63" target="gkOn1DTOGH1XlXqJHRQI-62">
          <mxGeometry relative="1" as="geometry">
            <mxPoint x="389" y="354" as="sourcePoint" />
            <mxPoint x="314" y="354" as="targetPoint" />
            <Array as="points">
              <mxPoint x="430" y="324" />
              <mxPoint x="430" y="324" />
            </Array>
          </mxGeometry>
        </mxCell>
        <mxCell id="gkOn1DTOGH1XlXqJHRQI-125" style="edgeStyle=orthogonalEdgeStyle;rounded=0;orthogonalLoop=1;jettySize=auto;html=1;endArrow=none;endFill=0;exitX=-0.049;exitY=0.478;exitDx=0;exitDy=0;exitPerimeter=0;entryX=0.75;entryY=1;entryDx=0;entryDy=0;dashed=1;dashPattern=1 2;" edge="1" parent="1" source="gkOn1DTOGH1XlXqJHRQI-61" target="gkOn1DTOGH1XlXqJHRQI-70">
          <mxGeometry relative="1" as="geometry">
            <mxPoint x="384" y="312" as="sourcePoint" />
            <mxPoint x="404" y="224" as="targetPoint" />
            <Array as="points">
              <mxPoint x="520" y="322" />
              <mxPoint x="520" y="270" />
              <mxPoint x="413" y="270" />
            </Array>
          </mxGeometry>
        </mxCell>
      </root>
    </mxGraphModel>
  </diagram>
</mxfile>
